<?xml version="1.0" encoding="UTF-8" standalone="no"?><!DOCTYPE svg PUBLIC "-//W3C//DTD SVG 1.1//EN" "http://www.w3.org/Graphics/SVG/1.1/DTD/svg11.dtd"><svg width="100%" height="100%" viewBox="0 0 24 24" version="1.1" xmlns="http://www.w3.org/2000/svg" xmlns:xlink="http://www.w3.org/1999/xlink" xml:space="preserve" style="fill-rule:evenodd;clip-rule:evenodd;stroke-linejoin:round;stroke-miterlimit:1.41421;"><path d="M17.125,15.063l6.875,6.874l-2.063,2.063l-6.812,-6.875l0,-1.063l-0.438,-0.375c-1.666,1.417 -3.604,2.125 -5.812,2.125c-2.458,0 -4.552,-0.864 -6.281,-2.593c-1.729,-1.729 -2.594,-3.823 -2.594,-6.282c0,-2.458 0.865,-4.562 2.594,-6.312c1.729,-1.75 3.802,-2.625 6.219,-2.625c2.458,0 4.552,0.875 6.281,2.625c1.729,1.75 2.593,3.854 2.593,6.312c0,2.209 -0.708,4.146 -2.125,5.813l0.438,0.313l1.125,-0.001Zm-8.25,0c1.708,0 3.167,-0.593 4.375,-1.781c1.208,-1.187 1.813,-2.635 1.813,-4.344c-0.001,-1.708 -0.605,-3.166 -1.813,-4.375c-1.208,-1.208 -2.667,-1.812 -4.375,-1.812c-1.708,0 -3.156,0.604 -4.344,1.812c-1.187,1.209 -1.781,2.667 -1.781,4.375c0,1.709 0.594,3.157 1.781,4.344c1.188,1.188 2.636,1.781 4.344,1.781Z" style="fill:#777;fill-rule:nonzero;"/></svg>