<?xml version="1.0" encoding="UTF-8" standalone="no"?><!DOCTYPE svg PUBLIC "-//W3C//DTD SVG 1.1//EN" "http://www.w3.org/Graphics/SVG/1.1/DTD/svg11.dtd"><svg width="100%" height="100%" viewBox="0 0 24 24" version="1.1" xmlns="http://www.w3.org/2000/svg" xmlns:xlink="http://www.w3.org/1999/xlink" xml:space="preserve" style="fill-rule:evenodd;clip-rule:evenodd;stroke-linejoin:round;stroke-miterlimit:1.41421;"><path d="M14.567,17.455c0.056,0.019 0.072,0.021 0.123,0.051c0.051,0.03 0.061,0.043 0.105,0.082c1.754,1.796 3.381,3.724 5.262,5.386c0.016,0.013 0.031,0.023 0.051,0.025c0.021,0.002 0.041,0.001 0.062,-0.001c0.031,-0.003 0.063,-0.009 0.089,-0.028c1.005,-0.802 1.798,-1.838 2.696,-2.758c0.016,-0.016 0.016,-0.015 0.031,-0.032c0.013,-0.015 0.024,-0.03 0.035,-0.047l0.005,-0.008c-0.019,-0.032 -0.043,-0.059 -0.07,-0.086l-5.312,-5.375c-0.038,-0.043 -0.05,-0.053 -0.078,-0.103c-0.066,-0.115 -0.083,-0.252 -0.049,-0.379c0.015,-0.056 0.025,-0.068 0.05,-0.12c0.052,-0.089 0.103,-0.179 0.152,-0.27c0.216,-0.4 0.403,-0.814 0.558,-1.241c0.265,-0.728 0.432,-1.494 0.498,-2.265c0.042,-0.484 0.048,-0.971 0.02,-1.457c-0.05,-0.886 -0.215,-1.764 -0.51,-2.601c-0.27,-0.765 -0.651,-1.491 -1.119,-2.153c-0.356,-0.504 -0.761,-0.97 -1.201,-1.401c-0.368,-0.36 -0.76,-0.694 -1.178,-0.994c-0.609,-0.439 -1.274,-0.805 -1.975,-1.075c-0.436,-0.168 -0.885,-0.301 -1.343,-0.398c-0.824,-0.175 -1.671,-0.234 -2.512,-0.196c-1.029,0.047 -2.049,0.253 -3.006,0.635c-0.488,0.196 -0.959,0.436 -1.406,0.715c-0.706,0.441 -1.351,0.977 -1.929,1.576c-0.438,0.453 -0.836,0.945 -1.18,1.473c-0.278,0.428 -0.519,0.88 -0.719,1.349c-0.307,0.716 -0.509,1.475 -0.619,2.246c-0.068,0.474 -0.098,0.954 -0.098,1.433c0,0.479 0.03,0.959 0.098,1.433c0.041,0.286 0.095,0.571 0.161,0.853c0.129,0.549 0.316,1.086 0.549,1.6c0.475,1.045 1.166,1.984 1.981,2.79c0.369,0.365 0.763,0.706 1.183,1.012c0.339,0.248 0.694,0.474 1.064,0.674c0.593,0.32 1.222,0.573 1.872,0.749c0.669,0.181 1.357,0.284 2.049,0.315c0.519,0.024 1.04,0.009 1.556,-0.054c0.843,-0.103 1.668,-0.332 2.447,-0.669c0.421,-0.182 0.827,-0.397 1.221,-0.632l0.059,-0.031c0.056,-0.019 0.069,-0.027 0.128,-0.035c0.059,-0.009 0.074,-0.005 0.134,-0.001c0.021,0.004 0.043,0.009 0.065,0.013Zm8.466,2.655l0,0c0.001,-0.002 0.002,-0.003 0.002,-0.005c0.001,-0.001 -0.001,0.003 -0.002,0.005Zm-13.512,-17.234c0.327,0.005 0.654,0.029 0.977,0.079c0.6,0.092 1.185,0.27 1.732,0.534c0.333,0.16 0.651,0.352 0.95,0.569c0.286,0.208 0.553,0.439 0.804,0.688c0.666,0.66 1.205,1.451 1.537,2.329c0.14,0.37 0.244,0.754 0.313,1.143c0.066,0.375 0.098,0.756 0.103,1.136c0.01,0.832 -0.122,1.666 -0.416,2.446c-0.206,0.544 -0.491,1.057 -0.837,1.524c-0.245,0.329 -0.52,0.636 -0.817,0.92c-0.54,0.515 -1.166,0.943 -1.852,1.241c-0.361,0.157 -0.738,0.278 -1.124,0.363c-0.45,0.098 -0.91,0.147 -1.37,0.152c-0.517,0.006 -1.035,-0.042 -1.54,-0.152c-0.361,-0.079 -0.715,-0.19 -1.056,-0.331c-0.694,-0.288 -1.327,-0.707 -1.881,-1.213c-0.385,-0.353 -0.735,-0.745 -1.035,-1.173c-0.273,-0.39 -0.503,-0.811 -0.68,-1.253c-0.28,-0.697 -0.424,-1.441 -0.45,-2.19c-0.025,-0.704 0.052,-1.412 0.244,-2.09c0.079,-0.279 0.18,-0.552 0.297,-0.817c0.352,-0.791 0.878,-1.499 1.503,-2.096c0.468,-0.447 0.995,-0.833 1.572,-1.127c0.494,-0.252 1.021,-0.436 1.565,-0.547c0.372,-0.076 0.748,-0.117 1.128,-0.132c0.111,-0.003 0.222,-0.004 0.333,-0.003Z" style="fill:#777;"/></svg>