<?xml version="1.0" encoding="UTF-8" standalone="no"?><!DOCTYPE svg PUBLIC "-//W3C//DTD SVG 1.1//EN" "http://www.w3.org/Graphics/SVG/1.1/DTD/svg11.dtd"><svg width="100%" height="100%" viewBox="0 0 192 54" version="1.1" xmlns="http://www.w3.org/2000/svg" xmlns:xlink="http://www.w3.org/1999/xlink" xml:space="preserve" style="fill-rule:evenodd;clip-rule:evenodd;stroke-linejoin:round;stroke-miterlimit:1.41421;"><g id="logo"><g><path d="M29.156,36.214c0,-4.626 -2.767,-7.393 -7.583,-7.393c-2.388,0 -4.511,0.91 -5.99,2.692c-1.441,-1.934 -3.223,-2.654 -5.611,-2.654c-1.82,0 -4.019,0.834 -5.119,2.35l0,-1.782l-4.853,0l0,21.536l4.853,0l0,-13.232c0,-2.503 2.085,-4.323 4.284,-4.323c1.858,0 2.996,1.252 2.996,3.489l0.038,14.066l4.853,0l0,-13.27c0,-2.465 2.237,-4.247 4.094,-4.247c1.707,0 3.185,1.214 3.185,3.488l0,14.029l4.853,0l0,-14.749Z" style="fill:#5177c4;fill-rule:nonzero;"/><path d="M38.028,38.337c0,-2.767 1.972,-5.156 4.854,-5.156c2.919,0 5.042,2.085 4.966,5.156l-9.82,0Zm14.673,2.844c0.304,-6.863 -2.843,-12.322 -9.819,-12.322c-6.294,0 -9.934,4.929 -9.934,11.26c0,6.446 3.791,11.488 10.616,11.488c2.995,0 5.763,-1.137 7.772,-3.071l-2.729,-3.26c-1.479,1.365 -3.034,1.971 -5.081,1.971c-3.185,0 -5.27,-2.161 -5.422,-5.194l14.56,0l0.037,-0.872Z" style="fill:#5177c4;fill-rule:nonzero;"/><path d="M70.787,43.266c0,2.54 -2.958,3.716 -4.626,3.716c-3.526,0 -5.46,-3.488 -5.46,-6.635c0,-3.83 1.934,-6.825 5.574,-6.825c1.934,0 4.512,1.403 4.512,3.83l0,5.914Zm4.777,-21.877l-4.853,0l0,9.327c-1.327,-1.251 -3.185,-1.857 -5.156,-1.857c-6.711,0 -9.82,5.611 -9.82,11.602c0,5.421 3.791,11.146 9.706,11.146c2.123,0 3.867,-0.72 5.156,-2.009l0.038,1.403l4.929,0l0,-29.612Z" style="fill:#5177c4;fill-rule:nonzero;"/></g><g><path d="M109.649,36.214c0,-4.626 -2.767,-7.393 -7.583,-7.393c-2.388,0 -4.511,0.91 -5.99,2.692c-1.441,-1.934 -3.223,-2.654 -5.612,-2.654c-1.819,0 -4.019,0.834 -5.118,2.35l0,-1.782l-4.853,0l0,21.536l4.853,0l0,-13.232c0,-2.503 2.085,-4.323 4.284,-4.323c1.858,0 2.996,1.252 2.996,3.489l0.038,14.066l4.853,0l0,-13.27c0,-2.465 2.237,-4.247 4.094,-4.247c1.707,0 3.185,1.214 3.185,3.488l0,14.029l4.853,0l0,-14.749Z" style="fill:#64c047;fill-rule:nonzero;"/><path d="M126.18,44.745c0,1.706 -1.403,2.881 -4.133,2.881c-1.744,0 -3.677,-0.947 -3.677,-2.919c0,-2.692 2.426,-2.995 4.436,-3.185c0.91,-0.076 2.426,-0.189 3.374,-0.227l0,3.45Zm6.787,3.374c-1.403,-0.531 -1.934,-1.44 -1.934,-3.033l0,-8.227c0,-5.384 -2.73,-8.038 -7.886,-8.038c-2.957,0 -5.649,0.682 -8.379,2.275l1.782,3.905c2.009,-1.213 4.019,-1.744 6.218,-1.744c2.426,0 3.45,1.099 3.45,3.336l0,0.872c-1.327,0.076 -3.602,0.266 -4.815,0.379c-2.123,0.19 -7.962,0.835 -7.962,7.204c0,4.322 3.564,6.559 7.696,6.559c2.806,0 4.74,-0.947 6.067,-2.123c0.72,1.289 1.933,2.086 3.564,2.237l2.199,-3.602Z" style="fill:#64c047;fill-rule:nonzero;"/><path d="M148.36,46.716c-0.796,0.304 -1.668,0.455 -2.502,0.455c-2.123,0 -2.616,-0.72 -2.616,-2.729l0,-10.92l5.573,0l0,-4.095l-5.573,0l0,-8.038l-4.815,0l0,8.038l-3.564,0l0,4.095l3.564,0c0,2.465 0,12.815 0,12.815c0,4.36 3.298,5.308 5.952,5.308c2.123,0 3.64,-0.417 4.777,-0.72l-0.796,-4.209Z" style="fill:#64c047;fill-rule:nonzero;"/><path d="M156.701,38.337c0,-2.767 1.972,-5.156 4.854,-5.156c2.919,0 5.042,2.085 4.966,5.156l-9.82,0Zm14.673,2.844c0.304,-6.863 -2.843,-12.322 -9.819,-12.322c-6.294,0 -9.934,4.929 -9.934,11.26c0,6.446 3.791,11.488 10.616,11.488c2.995,0 5.763,-1.137 7.772,-3.071l-2.729,-3.26c-1.479,1.365 -3.034,1.971 -5.081,1.971c-3.185,0 -5.27,-2.161 -5.422,-5.194l14.559,0l0.038,-0.872Z" style="fill:#64c047;fill-rule:nonzero;"/><path d="M192,44.934c0,-4.019 -2.844,-5.573 -5.877,-6.369l-3.943,-0.986c-1.971,-0.493 -2.351,-1.327 -2.351,-2.047c0,-1.479 1.517,-2.351 3.678,-2.351c1.972,0 3.829,0.872 5.157,1.782l2.919,-3.299c-2.351,-1.895 -5.308,-2.843 -8.379,-2.843c-4.247,0 -8.493,2.312 -8.493,6.976c0,3.526 2.692,5.384 5.422,6.028l3.753,0.948c1.744,0.455 2.958,1.214 2.958,2.275c0,1.555 -1.327,2.199 -3.564,2.199c-1.744,0 -4.209,-0.644 -6.029,-2.237l-3.033,3.451c2.54,2.236 5.611,3.184 8.948,3.184c4.512,0 8.834,-2.085 8.834,-6.711Z" style="fill:#64c047;fill-rule:nonzero;"/></g><path d="M51.915,10.056l-6.521,0l0,-6.556l-5.081,0l0,6.556l-6.559,0l0,4.777l6.559,0l0,6.556l5.081,0l0,-6.556l6.521,0l0,-4.777Z" style="fill:#f3be00;fill-rule:nonzero;"/></g></svg>