<?xml version="1.0" encoding="utf-8"?>
<!-- Generator: Adobe Illustrator 20.1.0, SVG Export Plug-In . SVG Version: 6.00 Build 0)  -->
<svg version="1.1" id="Layer_1" xmlns="http://www.w3.org/2000/svg" xmlns:xlink="http://www.w3.org/1999/xlink" x="0px" y="0px"
	 viewBox="0 0 612 153.7" style="enable-background:new 0 0 612 153.7;" xml:space="preserve">
<style type="text/css">
	.st0{fill:#5279BE;}
	.st1{fill:#62BF5C;}
	.st2{fill:#F4BC43;}
</style>
<g id="logo">
	<g>
		<path class="st0" d="M92.9,104.3c0-14.7-8.8-23.6-24.2-23.6c-7.6,0-14.4,2.9-19.1,8.6c-4.6-6.2-10.3-8.5-17.9-8.5
			c-5.8,0-12.8,2.7-16.3,7.5v-5.7H0v68.6h15.5v-42.2c0-8,6.6-13.8,13.7-13.8c5.9,0,9.5,4,9.5,11.1l0.1,44.8h15.5V109
			c0-7.9,7.1-13.5,13-13.5c5.4,0,10.2,3.9,10.2,11.1v44.7h15.5V104.3L92.9,104.3z"/>
		<path class="st0" d="M121.2,111c0-8.8,6.3-16.4,15.5-16.4c9.3,0,16.1,6.6,15.8,16.4H121.2z M168,120.1c1-21.9-9.1-39.3-31.3-39.3
			c-20.1,0-31.7,15.7-31.7,35.9c0,20.5,12.1,36.6,33.8,36.6c9.5,0,18.4-3.6,24.8-9.8l-8.7-10.4c-4.7,4.3-9.7,6.3-16.2,6.3
			c-10.2,0-16.8-6.9-17.3-16.6h46.4L168,120.1L168,120.1z"/>
		<path class="st0" d="M225.6,126.8c0,8.1-9.4,11.8-14.7,11.8c-11.2,0-17.4-11.1-17.4-21.1c0-12.2,6.2-21.8,17.8-21.8
			c6.2,0,14.4,4.5,14.4,12.2V126.8L225.6,126.8z M240.9,57h-15.5v29.7c-4.2-4-10.2-5.9-16.4-5.9c-21.4,0-31.3,17.9-31.3,37
			c0,17.3,12.1,35.5,30.9,35.5c6.8,0,12.3-2.3,16.4-6.4l0.1,4.5h15.7L240.9,57L240.9,57z"/>
	</g>
	<g>
		<path class="st1" d="M349.5,104.3c0-14.7-8.8-23.6-24.2-23.6c-7.6,0-14.4,2.9-19.1,8.6c-4.6-6.2-10.3-8.5-17.9-8.5
			c-5.8,0-12.8,2.7-16.3,7.5v-5.7h-15.5v68.6H272v-42.2c0-8,6.6-13.8,13.7-13.8c5.9,0,9.5,4,9.5,11.1l0.1,44.8h15.5V109
			c0-7.9,7.1-13.5,13-13.5c5.4,0,10.2,3.9,10.2,11.1v44.7h15.5V104.3L349.5,104.3z"/>
		<path class="st1" d="M402.2,131.5c0,5.4-4.5,9.2-13.2,9.2c-5.6,0-11.7-3-11.7-9.3c0-8.6,7.7-9.5,14.1-10.2
			c2.9-0.2,7.7-0.6,10.8-0.7L402.2,131.5L402.2,131.5z M423.8,142.2c-4.5-1.7-6.2-4.6-6.2-9.7v-26.2c0-17.2-8.7-25.6-25.1-25.6
			c-9.4,0-18,2.2-26.7,7.2l5.7,12.5c6.4-3.9,12.8-5.6,19.8-5.6c7.7,0,11,3.5,11,10.6v2.8c-4.2,0.2-11.5,0.8-15.3,1.2
			c-6.8,0.6-25.4,2.7-25.4,23c0,13.8,11.4,20.9,24.5,20.9c8.9,0,15.1-3,19.3-6.8c2.3,4.1,6.2,6.6,11.4,7.1L423.8,142.2L423.8,142.2z
			"/>
		<path class="st1" d="M472.9,137.8c-2.5,1-5.3,1.5-8,1.5c-6.8,0-8.3-2.3-8.3-8.7V95.7h17.8V82.6h-17.8V57h-15.3v25.6h-11.4v13.1
			h11.4c0,7.9,0,40.8,0,40.8c0,13.9,10.5,16.9,19,16.9c6.8,0,11.6-1.3,15.2-2.3L472.9,137.8L472.9,137.8z"/>
		<path class="st1" d="M499.5,111c0-8.8,6.3-16.4,15.5-16.4c9.3,0,16.1,6.6,15.8,16.4H499.5L499.5,111z M546.3,120.1
			c1-21.9-9.1-39.3-31.3-39.3c-20.1,0-31.7,15.7-31.7,35.9c0,20.5,12.1,36.6,33.8,36.6c9.5,0,18.4-3.6,24.8-9.8l-8.7-10.4
			c-4.7,4.3-9.7,6.3-16.2,6.3c-10.2,0-16.8-6.9-17.3-16.6h46.4L546.3,120.1z"/>
		<path class="st1" d="M612,132.1c0-12.8-9.1-17.8-18.7-20.3l-12.6-3.1c-6.3-1.6-7.5-4.2-7.5-6.5c0-4.7,4.8-7.5,11.7-7.5
			c6.3,0,12.2,2.8,16.4,5.7l9.3-10.5c-7.5-6-16.9-9.1-26.7-9.1c-13.5,0-27.1,7.4-27.1,22.2c0,11.2,8.6,17.2,17.3,19.2l12,3
			c5.6,1.5,9.4,3.9,9.4,7.3c0,5-4.2,7-11.4,7c-5.6,0-13.4-2.1-19.2-7.1l-9.7,11c8.1,7.1,17.9,10.2,28.5,10.2
			C598.2,153.5,612,146.8,612,132.1L612,132.1z"/>
	</g>
	<path class="st2" d="M165.5,20.9h-20.8V0h-16.2v20.9h-20.9v15.2h20.9V57h16.2V36.1h20.8L165.5,20.9L165.5,20.9z"/>
</g>
</svg>
