<?xml version="1.0" encoding="UTF-8" standalone="no"?><!DOCTYPE svg PUBLIC "-//W3C//DTD SVG 1.1//EN" "http://www.w3.org/Graphics/SVG/1.1/DTD/svg11.dtd"><svg width="100%" height="100%" viewBox="0 0 192 48" version="1.1" xmlns="http://www.w3.org/2000/svg" xmlns:xlink="http://www.w3.org/1999/xlink" xml:space="preserve" style="fill-rule:evenodd;clip-rule:evenodd;stroke-linejoin:round;stroke-miterlimit:1.41421;"><g id="LOGO1"><g><path d="M29.023,32.564c0,-4.604 -2.755,-7.359 -7.548,-7.359c-2.378,0 -4.492,0.905 -5.964,2.679c-1.434,-1.925 -3.208,-2.642 -5.585,-2.642c-1.812,0 -4.001,0.831 -5.095,2.34l0,-1.774l-4.831,0l0,21.437l4.831,0l0,-13.171c0,-2.491 2.076,-4.303 4.265,-4.303c1.849,0 2.981,1.246 2.981,3.472l0.038,14.002l4.831,0l0,-13.209c0,-2.453 2.226,-4.227 4.076,-4.227c1.698,0 3.17,1.208 3.17,3.472l0,13.964l4.831,0l0,-14.681Z" style="fill:#5177c4;fill-rule:nonzero;"/><path d="M37.854,34.677c0,-2.755 1.963,-5.132 4.831,-5.132c2.906,0 5.019,2.075 4.944,5.132l-9.775,0Zm14.606,2.831c0.302,-6.831 -2.831,-12.266 -9.775,-12.266c-6.265,0 -9.888,4.907 -9.888,11.209c0,6.416 3.774,11.436 10.567,11.436c2.982,0 5.737,-1.132 7.737,-3.057l-2.717,-3.246c-1.472,1.359 -3.02,1.963 -5.058,1.963c-3.17,0 -5.246,-2.152 -5.397,-5.171l14.493,0l0.038,-0.868Z" style="fill:#5177c4;fill-rule:nonzero;"/><path d="M70.462,39.584c0,2.528 -2.944,3.698 -4.604,3.698c-3.51,0 -5.435,-3.472 -5.435,-6.604c0,-3.812 1.925,-6.794 5.548,-6.794c1.925,0 4.491,1.397 4.491,3.812l0,5.888Zm4.755,-21.777l-4.83,0l0,9.285c-1.321,-1.246 -3.171,-1.85 -5.133,-1.85c-6.68,0 -9.775,5.586 -9.775,11.549c0,5.397 3.774,11.096 9.662,11.096c2.113,0 3.849,-0.717 5.132,-2l0.038,1.396l4.906,0l0,-29.476Z" style="fill:#5177c4;fill-rule:nonzero;"/></g><g><path d="M109.146,32.564c0,-4.604 -2.755,-7.359 -7.548,-7.359c-2.377,0 -4.491,0.905 -5.963,2.679c-1.434,-1.925 -3.208,-2.642 -5.585,-2.642c-1.812,0 -4.001,0.831 -5.095,2.34l0,-1.774l-4.831,0l0,21.437l4.831,0l0,-13.171c0,-2.491 2.075,-4.303 4.264,-4.303c1.85,0 2.982,1.246 2.982,3.472l0.038,14.002l4.83,0l0,-13.209c0,-2.453 2.227,-4.227 4.076,-4.227c1.699,0 3.171,1.208 3.171,3.472l0,13.964l4.83,0l0,-14.681Z" style="fill:#64c047;fill-rule:nonzero;"/><path d="M125.601,41.056c0,1.698 -1.396,2.868 -4.113,2.868c-1.736,0 -3.661,-0.944 -3.661,-2.906c0,-2.68 2.415,-2.982 4.415,-3.17c0.906,-0.076 2.416,-0.189 3.359,-0.227l0,3.435Zm6.756,3.359c-1.396,-0.529 -1.925,-1.435 -1.925,-3.02l0,-8.189c0,-5.36 -2.717,-8.001 -7.85,-8.001c-2.944,0 -5.623,0.679 -8.341,2.264l1.774,3.887c2,-1.207 4.001,-1.736 6.19,-1.736c2.415,0 3.434,1.095 3.434,3.321l0,0.868c-1.321,0.076 -3.585,0.265 -4.793,0.378c-2.113,0.189 -7.926,0.83 -7.926,7.171c0,4.302 3.548,6.529 7.662,6.529c2.793,0 4.717,-0.944 6.038,-2.114c0.717,1.283 1.925,2.076 3.548,2.227l2.189,-3.585Z" style="fill:#64c047;fill-rule:nonzero;"/><path d="M147.68,43.018c-0.793,0.302 -1.661,0.453 -2.491,0.453c-2.114,0 -2.604,-0.717 -2.604,-2.717l0,-10.87l5.548,0l0,-4.076l-5.548,0l0,-8.001l-4.793,0l0,8.001l-3.548,0l0,4.076l3.548,0c0,2.454 0,12.757 0,12.757c0,4.34 3.283,5.284 5.925,5.284c2.113,0 3.623,-0.416 4.755,-0.718l-0.792,-4.189Z" style="fill:#64c047;fill-rule:nonzero;"/><path d="M155.983,34.677c0,-2.755 1.962,-5.132 4.831,-5.132c2.906,0 5.019,2.075 4.944,5.132l-9.775,0Zm14.605,2.831c0.302,-6.831 -2.83,-12.266 -9.774,-12.266c-6.265,0 -9.889,4.907 -9.889,11.209c0,6.416 3.775,11.436 10.568,11.436c2.981,0 5.736,-1.132 7.737,-3.057l-2.718,-3.246c-1.472,1.359 -3.019,1.963 -5.057,1.963c-3.17,0 -5.246,-2.152 -5.397,-5.171l14.493,0l0.037,-0.868Z" style="fill:#64c047;fill-rule:nonzero;"/><path d="M191.119,41.244c0,-4 -2.83,-5.547 -5.849,-6.34l-3.925,-0.981c-1.963,-0.491 -2.34,-1.321 -2.34,-2.038c0,-1.472 1.509,-2.34 3.66,-2.34c1.963,0 3.812,0.868 5.133,1.774l2.906,-3.284c-2.34,-1.887 -5.283,-2.83 -8.34,-2.83c-4.227,0 -8.454,2.302 -8.454,6.944c0,3.51 2.679,5.359 5.397,6.001l3.736,0.943c1.736,0.453 2.944,1.208 2.944,2.265c0,1.547 -1.321,2.189 -3.548,2.189c-1.736,0 -4.189,-0.642 -6.001,-2.227l-3.019,3.434c2.529,2.227 5.586,3.171 8.907,3.171c4.491,0 8.793,-2.076 8.793,-6.681Z" style="fill:#64c047;fill-rule:nonzero;"/></g><path d="M51.677,6.526l-6.491,0l0,-6.526l-5.058,0l0,6.526l-6.529,0l0,4.755l6.529,0l0,6.526l5.058,0l0,-6.526l6.491,0l0,-4.755Z" style="fill:#f3be00;fill-rule:nonzero;"/></g></svg>